<mxfile host="app.diagrams.net" modified="2022-06-02T08:32:45.880Z" agent="5.0 (Windows NT 10.0; Win64; x64) AppleWebKit/537.36 (KHTML, like Gecko) Chrome/102.0.0.0 Safari/537.36" etag="w9qBJPkPP8X9UWleA86V" version="16.2.7" type="github" pages="2">
  <diagram id="5mnkRgFZIP5zxIZn5EAq" name="Predicate form">
    <mxGraphModel dx="782" dy="436" grid="1" gridSize="10" guides="1" tooltips="1" connect="1" arrows="1" fold="1" page="1" pageScale="1" pageWidth="1169" pageHeight="1654" math="0" shadow="0">
      <root>
        <mxCell id="0" />
        <mxCell id="1" parent="0" />
        <mxCell id="ydR2u3FujmdfGVsNyOxq-1" value="v1" style="ellipse;whiteSpace=wrap;html=1;aspect=fixed;fillColor=none;" vertex="1" parent="1">
          <mxGeometry x="160" y="400" width="40" height="40" as="geometry" />
        </mxCell>
        <mxCell id="4unaoIxunH7mGYvfYDb9-1" value="e1" style="ellipse;whiteSpace=wrap;html=1;aspect=fixed;fillColor=none;dashed=1;" vertex="1" parent="1">
          <mxGeometry x="40" y="120" width="40" height="40" as="geometry" />
        </mxCell>
        <mxCell id="4unaoIxunH7mGYvfYDb9-2" value="mv4" style="ellipse;whiteSpace=wrap;html=1;fillColor=#e1d5e7;strokeColor=#000000;" vertex="1" parent="1">
          <mxGeometry x="580" y="320" width="60" height="40" as="geometry" />
        </mxCell>
        <mxCell id="4unaoIxunH7mGYvfYDb9-4" value="mv3" style="ellipse;whiteSpace=wrap;html=1;fillColor=#dae8fc;strokeColor=#000000;" vertex="1" parent="1">
          <mxGeometry x="380" y="80" width="60" height="40" as="geometry" />
        </mxCell>
        <mxCell id="4unaoIxunH7mGYvfYDb9-5" value="mv2" style="ellipse;whiteSpace=wrap;html=1;fillColor=#d5e8d4;strokeColor=#000000;" vertex="1" parent="1">
          <mxGeometry x="440" y="240" width="60" height="40" as="geometry" />
        </mxCell>
        <mxCell id="4unaoIxunH7mGYvfYDb9-15" style="edgeStyle=none;rounded=0;orthogonalLoop=1;jettySize=auto;html=1;exitX=0;exitY=1;exitDx=0;exitDy=0;entryX=1;entryY=0;entryDx=0;entryDy=0;" edge="1" parent="1" source="4unaoIxunH7mGYvfYDb9-6" target="4unaoIxunH7mGYvfYDb9-12">
          <mxGeometry relative="1" as="geometry" />
        </mxCell>
        <mxCell id="4unaoIxunH7mGYvfYDb9-16" style="edgeStyle=none;rounded=0;orthogonalLoop=1;jettySize=auto;html=1;exitX=0.5;exitY=1;exitDx=0;exitDy=0;entryX=0.5;entryY=0;entryDx=0;entryDy=0;" edge="1" parent="1" source="4unaoIxunH7mGYvfYDb9-6" target="4unaoIxunH7mGYvfYDb9-13">
          <mxGeometry relative="1" as="geometry" />
        </mxCell>
        <mxCell id="4unaoIxunH7mGYvfYDb9-17" style="edgeStyle=none;rounded=0;orthogonalLoop=1;jettySize=auto;html=1;exitX=1;exitY=1;exitDx=0;exitDy=0;entryX=0;entryY=0;entryDx=0;entryDy=0;" edge="1" parent="1" source="4unaoIxunH7mGYvfYDb9-6" target="4unaoIxunH7mGYvfYDb9-14">
          <mxGeometry relative="1" as="geometry" />
        </mxCell>
        <mxCell id="4unaoIxunH7mGYvfYDb9-6" value="mv1" style="ellipse;whiteSpace=wrap;html=1;fillColor=#f8cecc;strokeColor=#000000;" vertex="1" parent="1">
          <mxGeometry x="230" y="240" width="60" height="40" as="geometry" />
        </mxCell>
        <mxCell id="4unaoIxunH7mGYvfYDb9-7" value="v2" style="ellipse;whiteSpace=wrap;html=1;aspect=fixed;fillColor=none;" vertex="1" parent="1">
          <mxGeometry x="240" y="400" width="40" height="40" as="geometry" />
        </mxCell>
        <mxCell id="4unaoIxunH7mGYvfYDb9-8" value="v3" style="ellipse;whiteSpace=wrap;html=1;aspect=fixed;fillColor=none;" vertex="1" parent="1">
          <mxGeometry x="320" y="400" width="40" height="40" as="geometry" />
        </mxCell>
        <mxCell id="4unaoIxunH7mGYvfYDb9-18" style="edgeStyle=none;rounded=0;orthogonalLoop=1;jettySize=auto;html=1;exitX=0.5;exitY=1;exitDx=0;exitDy=0;entryX=0.5;entryY=0;entryDx=0;entryDy=0;" edge="1" parent="1" source="4unaoIxunH7mGYvfYDb9-12" target="ydR2u3FujmdfGVsNyOxq-1">
          <mxGeometry relative="1" as="geometry" />
        </mxCell>
        <mxCell id="4unaoIxunH7mGYvfYDb9-12" value="e1" style="ellipse;whiteSpace=wrap;html=1;aspect=fixed;fillColor=none;dashed=1;" vertex="1" parent="1">
          <mxGeometry x="160" y="320" width="40" height="40" as="geometry" />
        </mxCell>
        <mxCell id="4unaoIxunH7mGYvfYDb9-19" style="edgeStyle=none;rounded=0;orthogonalLoop=1;jettySize=auto;html=1;exitX=0.5;exitY=1;exitDx=0;exitDy=0;entryX=0.5;entryY=0;entryDx=0;entryDy=0;" edge="1" parent="1" source="4unaoIxunH7mGYvfYDb9-13" target="4unaoIxunH7mGYvfYDb9-7">
          <mxGeometry relative="1" as="geometry" />
        </mxCell>
        <mxCell id="4unaoIxunH7mGYvfYDb9-13" value="e1" style="ellipse;whiteSpace=wrap;html=1;aspect=fixed;fillColor=none;dashed=1;" vertex="1" parent="1">
          <mxGeometry x="240" y="320" width="40" height="40" as="geometry" />
        </mxCell>
        <mxCell id="4unaoIxunH7mGYvfYDb9-20" style="edgeStyle=none;rounded=0;orthogonalLoop=1;jettySize=auto;html=1;exitX=0.5;exitY=1;exitDx=0;exitDy=0;entryX=0.5;entryY=0;entryDx=0;entryDy=0;" edge="1" parent="1" source="4unaoIxunH7mGYvfYDb9-14" target="4unaoIxunH7mGYvfYDb9-8">
          <mxGeometry relative="1" as="geometry" />
        </mxCell>
        <mxCell id="4unaoIxunH7mGYvfYDb9-14" value="e1" style="ellipse;whiteSpace=wrap;html=1;aspect=fixed;fillColor=none;dashed=1;" vertex="1" parent="1">
          <mxGeometry x="320" y="320" width="40" height="40" as="geometry" />
        </mxCell>
      </root>
    </mxGraphModel>
  </diagram>
  <diagram id="sf59IieOYiXJeI6Ol03e" name="Graph form">
    <mxGraphModel dx="782" dy="436" grid="1" gridSize="10" guides="1" tooltips="1" connect="1" arrows="1" fold="1" page="1" pageScale="1" pageWidth="1169" pageHeight="1654" math="0" shadow="0">
      <root>
        <mxCell id="CZFq-tbUOs4MR2IKkpxn-0" />
        <mxCell id="CZFq-tbUOs4MR2IKkpxn-1" parent="CZFq-tbUOs4MR2IKkpxn-0" />
      </root>
    </mxGraphModel>
  </diagram>
</mxfile>
